<?xml version="1.0" encoding="iso-8859-1"?>
<!-- Generator: Adobe Illustrator 19.0.0, SVG Export Plug-In . SVG Version: 6.00 Build 0)  -->
<svg version="1.1" id="Capa_1" xmlns="http://www.w3.org/2000/svg" xmlns:xlink="http://www.w3.org/1999/xlink" x="0px" y="0px"
	 viewBox="0 0 511.999 511.999" style="enable-background:new 0 0 511.999 511.999;" xml:space="preserve">
<g>
	<g>
		<g>
			<path d="M501.977,374.454L312.301,67.937c-12.148-19.656-33.196-31.389-56.302-31.389s-44.153,11.734-56.302,31.389l0.006-0.009
				L10.017,374.463c-12.8,20.708-13.364,45.766-1.51,67.03c11.854,21.264,33.466,33.958,57.811,33.958h379.364
				c24.345,0,45.956-12.694,57.81-33.958C515.347,420.229,514.783,395.171,501.977,374.454z M468.563,422.019
				c-4.693,8.416-13.246,13.44-22.882,13.44H66.318c-9.636,0-18.19-5.024-22.882-13.44s-4.469-18.335,0.592-26.521L233.71,88.973
				l0.006-0.009c4.88-7.896,13.002-12.424,22.284-12.424c9.282,0,17.404,4.528,22.29,12.432l189.675,306.517
				C473.032,403.684,473.256,413.603,468.563,422.019z"/>
			<rect x="236.005" y="360.477" width="39.991" height="39.991"/>
			<rect x="236.005" y="163.52" width="39.991" height="156.965"/>
		</g>
	</g>
</g>
<g>
</g>
<g>
</g>
<g>
</g>
<g>
</g>
<g>
</g>
<g>
</g>
<g>
</g>
<g>
</g>
<g>
</g>
<g>
</g>
<g>
</g>
<g>
</g>
<g>
</g>
<g>
</g>
<g>
</g>
</svg>
