<?xml version="1.0" ?><svg enable-background="new 0 0 18 18" id="Layer_1" version="1.1" viewBox="0 0 52 52" xml:space="preserve" xmlns="http://www.w3.org/2000/svg" xmlns:xlink="http://www.w3.org/1999/xlink"><g><g><path d="M6.1240273,49.7846031c13.0828323-0.2237206,26.1664162-0.2773933,39.2506447-0.1610107    c1.6091194,0.0143127,1.6105499-2.4856758,0-2.5c-13.0842285-0.1163826-26.1678104-0.0627098-39.2506447,0.1610107    C4.5170512,47.3120804,4.5120139,49.8121681,6.1240273,49.7846031L6.1240273,49.7846031z"/></g><g><path d="M12.7733841,47.3377762c-0.1257534-5.7902603-0.2759085-11.6055031,0.1814737-17.3859348    c0.3363018-4.2502174,1.5004616-7.2115192,4.6744776-10.1824551c2.5369148-2.3745995,5.075222-3.4462624,8.640089-3.2196007    c6.7088013,0.4265594,12.277256,7.1793537,13.1338081,13.5167542c0.7858582,5.8143272,0.3714104,11.9259338,0.2347794,17.7704239    c-0.0376244,1.6093712,2.4623909,1.6087914,2.5,0c0.1166267-4.9888,0.2454491-9.9873962-0.0336647-14.9734344    c-0.1617088-2.8887672-0.0686455-6.2157249-1.5440063-8.7916927c-2.9913483-5.2228622-8.1321259-9.8005161-14.2909164-10.0220509    c-6.3203754-0.2273464-11.4406376,3.3005219-14.4764576,8.8374729c-1.4317598,2.6113453-1.3000679,6.1065388-1.4637051,8.9908066    c-0.2920494,5.1477032-0.1677485,10.3086567-0.0558777,15.4597111    C10.3082714,48.9441452,12.8083944,48.9498215,12.7733841,47.3377762L12.7733841,47.3377762z"/></g><g><path d="M44.125,26.6726437c1.4722214,0,2.9444427,0,4.4166679,0c1.6086311,0,1.6112938-2.5,0-2.5    c-1.4722252,0-2.9444466,0-4.4166679,0C42.5163689,24.1726437,42.5137062,26.6726437,44.125,26.6726437L44.125,26.6726437z"/></g><g><path d="M42.241478,7.4547896c-1.4772072,1.2913337-2.6729431,2.907578-3.9325638,4.4041734    c-1.0297432,1.2234697,0.7300186,3.0007496,1.7677689,1.767767c1.2596626-1.4966488,2.4552116-3.1127167,3.9325638-4.4041739    C45.2228241,8.1616812,43.4486618,6.3995056,42.241478,7.4547896L42.241478,7.4547896z"/></g><g><path d="M24.541666,3.4226444c0,1.7222221,0,3.4444444,0,5.166666c0,1.6086311,2.5,1.6112957,2.5,0    c0-1.7222219,0-3.4444442,0-5.166666C27.041666,1.8140136,24.541666,1.8113493,24.541666,3.4226444L24.541666,3.4226444z"/></g><g><path d="M8.075881,9.1589584c0.8701677,0.7249365,1.8639841,1.4105825,2.5975857,2.2789593    c0.6445141,0.7629213,0.9729233,1.6590872,1.9074841,2.1477451c1.4242525,0.7447052,2.6896114-1.4121094,1.2617979-2.1586771    c-0.681015-0.3560848-1.0629721-1.4099464-1.5970354-1.9677649c-0.7263527-0.7586584-1.5964279-1.3968534-2.4020653-2.0680294    C8.6158266,6.3682947,6.8379784,8.1276627,8.075881,9.1589584L8.075881,9.1589584z"/></g><g><path d="M3.4583333,26.5059776c1.5000002,0,3.0000002,0,4.5,0c1.6086307,0,1.6112952-2.5,0-2.5c-1.5,0-3,0-4.5,0    C1.8497026,24.0059776,1.8470381,26.5059776,3.4583333,26.5059776L3.4583333,26.5059776z"/></g></g></svg>